<svg viewBox="0 0 888 200" xmlns="http://www.w3.org/2000/svg">
  <path d="m332.694 145.013h222.613v33.703h-222.613z" fill="none"/>
  <path d="m335.178 145.01h1.38l22.451 31.697h.092v-31.697h.92v32.848h-1.38l-22.45-31.697h-.092v31.697h-.92v-32.848zm39.285 8.648c6.901 0 10.627 5.936 10.627 12.375 0 6.486-3.726 12.375-10.673 12.375-6.901 0-10.627-5.889-10.627-12.375 0-6.439 3.726-12.375 10.673-12.375zm0 23.83c6.303 0 9.707-5.475 9.707-11.455 0-5.889-3.404-11.455-9.707-11.455-6.395 0-9.753 5.566-9.753 11.455 0 5.981 3.358 11.455 9.753 11.455zm15.363.369h-.92v-23.646h.92v5.842h.092c.874-3.496 3.634-6.578 9.293-6.395v.92c-6.487-.322-9.385 4.738-9.385 9.891zm29.396-32.847h.92v32.848h-.92v-6.625h-.092c-1.196 4.141-4.646 7.176-9.477 7.176-6.257 0-10.075-5.197-10.075-12.328 0-6.625 3.542-12.422 10.075-12.422 5.015 0 8.373 2.898 9.477 7.178h.092zm-9.57 9.568c-6.487 0-9.155 6.027-9.155 11.502 0 6.072 3.037 11.408 9.155 11.408 6.073 0 9.569-5.289 9.569-11.408.001-7.314-3.818-11.502-9.569-11.502z" fill="#88c0d0"/>
  <g fill="#2e3440">
    <path d="m439.091 145.01h3.128v14.262h19.505v-14.262h3.129v32.848h-3.129v-15.918h-19.505v15.918h-3.128zm29.163 9.109h3.082l7.821 20.242 7.315-20.242h2.898l-10.306 27.373c-1.656 4.002-2.622 5.152-6.257 5.152-1.15-.047-1.748-.047-2.208-.23v-2.438c.69.137 1.334.229 1.978.229 2.576 0 3.175-1.518 4.141-3.727l1.013-2.713zm23.967 0h2.668v4.508h.092c1.334-3.221 4.646-5.199 8.465-5.199 7.223 0 10.674 5.844 10.674 12.561s-3.451 12.559-10.674 12.559c-3.542 0-6.992-1.795-8.234-5.199h-.092v13.297h-2.898v-32.527zm11.224 1.748c-6.395 0-8.326 4.738-8.326 10.121 0 4.922 2.162 10.121 8.326 10.121 5.521 0 7.775-5.199 7.775-10.121.001-4.924-2.253-10.121-7.775-10.121zm16.881 10.903c.046 4.232 2.254 9.34 7.82 9.34 4.232 0 6.533-2.484 7.453-6.074h2.898c-1.242 5.383-4.371 8.512-10.352 8.512-7.545 0-10.719-5.797-10.719-12.559 0-6.258 3.174-12.561 10.719-12.561 7.637 0 10.674 6.672 10.443 13.342zm15.365-2.438c-.138-4.371-2.853-8.465-7.545-8.465-4.738 0-7.36 4.141-7.82 8.465zm6.807-10.213h2.668v5.566h.092c1.473-3.818 4.692-6.074 8.971-5.889v2.898c-5.244-.277-8.833 3.588-8.833 8.51v12.652h-2.897v-23.737z"/>
    <path d="m466.561 127.013-43.393-55.545v-15.41l48.092 62.17h25.844v-87.545h-43.465l-9.397-9.399h62.258v105.729z"/>
    <path d="m421.439 21.284 43.395 55.541v15.41l-48.093-62.168h-25.843v87.545h43.463l9.401 9.401h-62.262v-105.729z"/>
  </g>
</svg>
