<?xml version="1.0" encoding="utf-8"?>
<!-- Generator: Adobe Illustrator 16.0.0, SVG Export Plug-In . SVG Version: 6.00 Build 0)  -->
<!DOCTYPE svg PUBLIC "-//W3C//DTD SVG 1.1//EN" "http://www.w3.org/Graphics/SVG/1.1/DTD/svg11.dtd">
<svg version="1.1" id="nord-hyper-banner" xmlns="http://www.w3.org/2000/svg" xmlns:xlink="http://www.w3.org/1999/xlink" x="0px"
	 y="0px" width="888px" height="200px" viewBox="0 0 888 200" enable-background="new 0 0 888 200" xml:space="preserve">
<rect x="332.694" y="145.013" fill="none" width="222.613" height="33.703"/>
<text id="text-src" transform="matrix(1 0 0 1 332.6938 177.8574)" display="none"><tspan x="0" y="0" display="inline" fill="#88C0D0" font-family="'HelveticaNeueLTStd-UltLt'" font-size="46">Nord</tspan><tspan x="90.296" y="0" display="inline" font-family="'HelveticaNeueLTStd-Roman'" font-size="46"> </tspan><tspan x="103.084" y="0" display="inline" fill="#2E3440" font-family="'HelveticaNeueLTStd-Lt'" font-size="46">Hyper</tspan></text>
<g id="text">
	<path fill="#88C0D0" d="M335.178,145.01h1.38l22.451,31.697h0.092V145.01h0.92v32.848h-1.38l-22.45-31.697h-0.092v31.697h-0.92
		V145.01z"/>
	<path fill="#88C0D0" d="M374.463,153.658c6.901,0,10.627,5.936,10.627,12.375c0,6.486-3.726,12.375-10.673,12.375
		c-6.901,0-10.627-5.889-10.627-12.375C363.79,159.594,367.516,153.658,374.463,153.658z M374.463,177.488
		c6.303,0,9.707-5.475,9.707-11.455c0-5.889-3.404-11.455-9.707-11.455c-6.395,0-9.753,5.566-9.753,11.455
		C364.71,172.014,368.068,177.488,374.463,177.488z"/>
	<path fill="#88C0D0" d="M389.826,177.857h-0.92v-23.646h0.92v5.842h0.092c0.874-3.496,3.634-6.578,9.293-6.395v0.92
		c-6.487-0.322-9.385,4.738-9.385,9.891V177.857z"/>
	<path fill="#88C0D0" d="M419.222,145.01h0.92v32.848h-0.92v-6.625h-0.092c-1.196,4.141-4.646,7.176-9.477,7.176
		c-6.257,0-10.075-5.197-10.075-12.328c0-6.625,3.542-12.422,10.075-12.422c5.015,0,8.373,2.898,9.477,7.178h0.092V145.01z
		 M409.652,154.578c-6.487,0-9.155,6.027-9.155,11.502c0,6.072,3.037,11.408,9.155,11.408c6.073,0,9.569-5.289,9.569-11.408
		C419.222,158.766,415.403,154.578,409.652,154.578z"/>
	<path fill="#2E3440" d="M439.091,145.01h3.128v14.262h19.505V145.01h3.129v32.848h-3.129v-15.918h-19.505v15.918h-3.128V145.01z"/>
	<path fill="#2E3440" d="M468.254,154.119h3.082l7.821,20.242l7.315-20.242h2.898l-10.306,27.373
		c-1.656,4.002-2.622,5.152-6.257,5.152c-1.15-0.047-1.748-0.047-2.208-0.23v-2.438c0.69,0.137,1.334,0.229,1.978,0.229
		c2.576,0,3.175-1.518,4.141-3.727l1.013-2.713L468.254,154.119z"/>
	<path fill="#2E3440" d="M492.221,154.119h2.668v4.508h0.092c1.334-3.221,4.646-5.199,8.465-5.199
		c7.223,0,10.674,5.844,10.674,12.561s-3.451,12.559-10.674,12.559c-3.542,0-6.992-1.795-8.234-5.199h-0.092v13.297h-2.898V154.119z
		 M503.445,155.867c-6.395,0-8.326,4.738-8.326,10.121c0,4.922,2.162,10.121,8.326,10.121c5.521,0,7.775-5.199,7.775-10.121
		C511.221,161.064,508.967,155.867,503.445,155.867z"/>
	<path fill="#2E3440" d="M520.326,166.77c0.046,4.232,2.254,9.34,7.82,9.34c4.232,0,6.533-2.484,7.453-6.074h2.898
		c-1.242,5.383-4.371,8.512-10.352,8.512c-7.545,0-10.719-5.797-10.719-12.559c0-6.258,3.174-12.561,10.719-12.561
		c7.637,0,10.674,6.672,10.443,13.342H520.326z M535.691,164.332c-0.138-4.371-2.853-8.465-7.545-8.465
		c-4.738,0-7.36,4.141-7.82,8.465H535.691z"/>
	<path fill="#2E3440" d="M542.498,154.119h2.668v5.566h0.092c1.473-3.818,4.692-6.074,8.971-5.889v2.898
		c-5.244-0.277-8.833,3.588-8.833,8.51v12.652h-2.897V154.119z"/>
</g>
<g id="logo">
	<polygon id="character-half-right" fill="#2E3440" points="466.561,127.013 423.168,71.468 423.168,56.058 471.26,118.228 
		497.104,118.228 497.104,30.683 453.639,30.683 444.242,21.284 506.5,21.284 506.5,127.013 	"/>
	<polygon id="character-half-left" fill="#2E3440" points="421.439,21.284 464.834,76.825 464.834,92.235 416.741,30.067 
		390.898,30.067 390.898,117.612 434.361,117.612 443.762,127.013 381.5,127.013 381.5,21.284 	"/>
</g>
</svg>
